<svg xmlns="http://www.w3.org/2000/svg" viewBox="0 0 512 512" width="100%" height="100%">
  <defs>
    <linearGradient id="phoneBg" x1="0%" y1="0%" x2="100%" y2="100%">
      <stop offset="0%" stop-color="#1e3d59" />
      <stop offset="100%" stop-color="#122538" />
    </linearGradient>
    <filter id="dropShadow" x="-10%" y="-10%" width="130%" height="130%">
      <feDropShadow dx="2" dy="4" stdDeviation="4" flood-opacity="0.3"/>
    </filter>
  </defs>

  <rect x="20" y="20" width="472" height="472" rx="48" ry="48" fill="#1e3d59" />

  <g transform="rotate(-3, 256, 260)">
    <rect x="146" y="65" width="220" height="382" rx="32" ry="32" fill="#2d3748" stroke="#1a202c" stroke-width="6" filter="url(#dropShadow)" />
    
    <rect x="155" y="74" width="202" height="364" rx="22" ry="22" fill="url(#phoneBg)" />
    
    <path d="M 220 74 L 220 82 A 5 5 0 0 0 225 87 L 287 87 A 5 5 0 0 0 292 82 L 292 74 Z" fill="#2d3748" />

    <text x="256" y="155" font-family="Arial, Helvetica, sans-serif" font-weight="900" font-size="38" fill="#ffffff" text-anchor="middle" letter-spacing="2">TAMS</text>

    <rect x="205" y="195" width="100" height="130" rx="6" fill="#e2e8f0" transform="rotate(-4, 255, 260)" />
    
    <g transform="translate(0, 0)">
      <rect x="210" y="190" width="100" height="130" rx="6" fill="#ffffff" filter="url(#dropShadow)" />
      
      <line x1="224" y1="212" x2="296" y2="212" stroke="#cbd5e1" stroke-width="4" stroke-linecap="round" />
      <line x1="224" y1="227" x2="296" y2="227" stroke="#cbd5e1" stroke-width="4" stroke-linecap="round" />
      <line x1="224" y1="242" x2="276" y2="242" stroke="#cbd5e1" stroke-width="4" stroke-linecap="round" />
      <line x1="224" y1="257" x2="290" y2="257" stroke="#cbd5e1" stroke-width="4" stroke-linecap="round" />
      <line x1="224" y1="272" x2="260" y2="272" stroke="#cbd5e1" stroke-width="4" stroke-linecap="round" />
      <line x1="224" y1="287" x2="286" y2="287" stroke="#cbd5e1" stroke-width="4" stroke-linecap="round" />
      <line x1="224" y1="302" x2="266" y2="302" stroke="#cbd5e1" stroke-width="4" stroke-linecap="round" />
    </g>

    <path d="M 195 260 L 235 300 L 315 205" fill="none" stroke="#48bb78" stroke-width="18" stroke-linecap="round" stroke-linejoin="round" filter="url(#dropShadow)" />
    <path d="M 195 260 L 235 300 L 315 205" fill="none" stroke="#38a169" stroke-width="5" stroke-linecap="round" stroke-linejoin="round" />
  </g>
</svg>
