<svg xmlns="http://www.w3.org/2000/svg" viewBox="0 0 512 512" width="100%" height="100%">
  <defs>
    <linearGradient id="phoneBg" x1="0%" y1="0%" x2="100%" y2="100%">
      <stop offset="0%" stop-color="#1e3d59" />
      <stop offset="100%" stop-color="#122538" />
    </linearGradient>
    <filter id="dropShadow" x="-10%" y="-10%" width="130%" height="130%">
      <feDropShadow dx="2" dy="4" stdDeviation="4" flood-opacity="0.3"/>
    </filter>
  </defs>

  <circle cx="256" cy="256" r="240" fill="#1e3d59" />

  <g transform="rotate(-5, 256, 256)">
    <rect x="136" y="50" width="240" height="412" rx="36" ry="36" fill="#2d3748" stroke="#1a202c" stroke-width="6" filter="url(#dropShadow)" />
    
    <rect x="146" y="60" width="220" height="392" rx="26" ry="26" fill="url(#phoneBg)" />
    
    <path d="M 216 60 L 216 70 A 6 6 0 0 0 222 76 L 290 76 A 6 6 0 0 0 296 70 L 296 60 Z" fill="#2d3748" />

    <text x="256" y="150" font-family="Arial, Helvetica, sans-serif" font-weight="900" font-size="42" fill="#ffffff" text-anchor="middle" letter-spacing="2">TAMS</text>

    <rect x="200" y="195" width="110" height="140" rx="6" fill="#e2e8f0" transform="rotate(-4, 255, 265)" />
    
    <g transform="translate(0, 0)">
      <rect x="206" y="190" width="110" height="140" rx="6" fill="#ffffff" filter="url(#dropShadow)" />
      
      <line x1="220" y1="215" x2="302" y2="215" stroke="#cbd5e1" stroke-width="4" stroke-linecap="round" />
      <line x1="220" y1="230" x2="302" y2="230" stroke="#cbd5e1" stroke-width="4" stroke-linecap="round" />
      <line x1="220" y1="245" x2="280" y2="245" stroke="#cbd5e1" stroke-width="4" stroke-linecap="round" />
      <line x1="220" y1="260" x2="295" y2="260" stroke="#cbd5e1" stroke-width="4" stroke-linecap="round" />
      <line x1="220" y1="275" x2="260" y2="275" stroke="#cbd5e1" stroke-width="4" stroke-linecap="round" />
      <line x1="220" y1="290" x2="290" y2="290" stroke="#cbd5e1" stroke-width="4" stroke-linecap="round" />
      <line x1="220" y1="305" x2="270" y2="305" stroke="#cbd5e1" stroke-width="4" stroke-linecap="round" />
    </g>

    <path d="M 190 265 L 235 310 L 325 210" fill="none" stroke="#48bb78" stroke-width="20" stroke-linecap="round" stroke-linejoin="round" filter="url(#dropShadow)" />
    <path d="M 190 265 L 235 310 L 325 210" fill="none" stroke="#38a169" stroke-width="6" stroke-linecap="round" stroke-linejoin="round" />
  </g>
</svg>
